<svg width="74" height="74" viewBox="0 0 74 74" fill="none" xmlns="http://www.w3.org/2000/svg">
<path d="M0 18.5C0 8.28273 8.28273 0 18.5 0C49.1518 0 74 24.8482 74 55.5C74 65.7173 65.7173 74 55.5 74C24.8482 74 0 49.1518 0 18.5Z" fill="#342EDB" fill-opacity="0.1"/>
<path d="M24.252 44.4516C17.2493 37.4489 17.2493 25.9573 24.252 18.9546M29.4591 23.9822C27.7557 25.7472 26.6895 28.0298 26.4294 30.4689C26.1692 32.9081 26.7299 35.3643 28.0227 37.4489M37.0005 35.2942C38.9838 35.2942 40.5916 33.6864 40.5916 31.7031C40.5916 29.7198 38.9838 28.112 37.0005 28.112C35.0172 28.112 33.4094 29.7198 33.4094 31.7031C33.4094 33.6864 35.0172 35.2942 37.0005 35.2942ZM37.0005 35.2942L29.8183 55.0454M37.0005 35.2942L44.1827 55.0454M44.5419 24.1617C48.133 27.7528 48.5998 33.337 45.9783 37.5746M49.749 18.9546C51.4135 20.6157 52.7341 22.5888 53.6352 24.761C54.5362 26.9331 55 29.2617 55 31.6133C55 33.9649 54.5362 36.2934 53.6352 38.4656C52.7341 40.6377 51.4135 42.6109 49.749 44.272M32.5116 47.8631H41.4894" stroke="#7C2EDB" stroke-width="3" stroke-linecap="round" stroke-linejoin="round"/>
</svg>
