<svg width="74" height="74" viewBox="0 0 74 74" fill="none" xmlns="http://www.w3.org/2000/svg">
<path d="M0 18.5C0 8.28273 8.28273 0 18.5 0C49.1518 0 74 24.8482 74 55.5C74 65.7173 65.7173 74 55.5 74C24.8482 74 0 49.1518 0 18.5Z" fill="#342EDB" fill-opacity="0.1"/>
<path d="M31 19H21C19.8954 19 19 19.8954 19 21V31C19 32.1046 19.8954 33 21 33H31C32.1046 33 33 32.1046 33 31V21C33 19.8954 32.1046 19 31 19Z" stroke="#7C2EDB" stroke-width="3" stroke-linecap="round" stroke-linejoin="round"/>
<path d="M53 19H43C41.8954 19 41 19.8954 41 21V31C41 32.1046 41.8954 33 43 33H53C54.1046 33 55 32.1046 55 31V21C55 19.8954 54.1046 19 53 19Z" stroke="#7C2EDB" stroke-width="3" stroke-linecap="round" stroke-linejoin="round"/>
<path d="M53 41H43C41.8954 41 41 41.8954 41 43V53C41 54.1046 41.8954 55 43 55H53C54.1046 55 55 54.1046 55 53V43C55 41.8954 54.1046 41 53 41Z" stroke="#7C2EDB" stroke-width="3" stroke-linecap="round" stroke-linejoin="round"/>
<path d="M31 41H21C19.8954 41 19 41.8954 19 43V53C19 54.1046 19.8954 55 21 55H31C32.1046 55 33 54.1046 33 53V43C33 41.8954 32.1046 41 31 41Z" stroke="#7C2EDB" stroke-width="3" stroke-linecap="round" stroke-linejoin="round"/>
</svg>
