<svg width="74" height="74" viewBox="0 0 74 74" fill="none" xmlns="http://www.w3.org/2000/svg">
<path d="M0 18.5C0 8.28273 8.28273 0 18.5 0C49.1518 0 74 24.8482 74 55.5C74 65.7173 65.7173 74 55.5 74C24.8482 74 0 49.1518 0 18.5Z" fill="#342EDB" fill-opacity="0.1"/>
<path d="M40.5553 19.0092C44.2356 19.397 47.6732 21.0293 50.2998 23.6362C52.9264 26.243 54.5845 29.6683 55 33.3456M40.5553 26.2316C42.3311 26.5817 43.9607 27.4576 45.2325 28.7455C46.5043 30.0334 47.3596 31.6738 47.6874 33.4539M54.9097 45.9486V51.3653C54.9118 51.8682 54.8088 52.3659 54.6073 52.8267C54.4058 53.2874 54.1104 53.701 53.7398 54.041C53.3693 54.3809 52.9318 54.6397 52.4555 54.8008C51.9791 54.9619 51.4744 55.0218 50.9735 54.9765C45.4175 54.3728 40.0804 52.4742 35.3913 49.4333C31.0287 46.6612 27.33 42.9624 24.5578 38.5998C21.5063 33.8894 19.6073 28.5264 19.0147 22.9454C18.9695 22.4461 19.0289 21.9429 19.1889 21.4677C19.3489 20.9926 19.6061 20.556 19.9441 20.1858C20.2821 19.8155 20.6935 19.5197 21.1521 19.3171C21.6107 19.1145 22.1064 19.0097 22.6078 19.0092H28.0245C28.9008 19.0006 29.7503 19.3109 30.4147 19.8823C31.0791 20.4537 31.5131 21.2471 31.6357 22.1148C31.8643 23.8483 32.2883 25.5504 32.8996 27.1885C33.1425 27.8348 33.1951 28.5371 33.0511 29.2124C32.9071 29.8876 32.5726 30.5074 32.0871 30.9983L29.794 33.2914C32.3644 37.8118 36.1072 41.5546 40.6275 44.1249L42.9206 41.8318C43.4115 41.3464 44.0313 41.0118 44.7066 40.8678C45.3818 40.7238 46.0841 40.7764 46.7304 41.0193C48.3686 41.6306 50.0706 42.0546 51.8041 42.2832C52.6812 42.407 53.4822 42.8487 54.0548 43.5246C54.6274 44.2004 54.9317 45.0631 54.9097 45.9486Z" stroke="#7C2EDB" stroke-width="3" stroke-linecap="round" stroke-linejoin="round"/>
</svg>
